<mxfile host="app.diagrams.net" modified="2021-12-14T04:32:00.001Z" agent="5.0 (X11; Linux x86_64) AppleWebKit/537.36 (KHTML, like Gecko) Chrome/96.0.4664.93 Safari/537.36" etag="WmxeqJeqd-zmvht9dV7N" version="15.9.1" type="github">
  <diagram id="A99DdAJ5PK1zMeIAeDLB" name="Page-1">
    <mxGraphModel dx="1285" dy="413" grid="1" gridSize="10" guides="1" tooltips="1" connect="1" arrows="1" fold="1" page="1" pageScale="1" pageWidth="50" pageHeight="50" math="0" shadow="0">
      <root>
        <mxCell id="0" />
        <mxCell id="1" parent="0" />
        <mxCell id="cclBEqFT7hq5Q4IXAHW2-1" value="Precipitación&lt;br&gt;P&lt;sub&gt;(p)&lt;/sub&gt;" style="rounded=1;whiteSpace=wrap;html=1;fontStyle=1;fontSize=15;labelBackgroundColor=none;labelBorderColor=none;fillColor=#dae8fc;strokeColor=#6c8ebf;" parent="1" vertex="1">
          <mxGeometry x="-44.5" y="280" width="120" height="50" as="geometry" />
        </mxCell>
        <mxCell id="cclBEqFT7hq5Q4IXAHW2-2" value="Evapotranspiración potencial&lt;br&gt;PE&lt;sub&gt;(p)&lt;/sub&gt;" style="rounded=1;whiteSpace=wrap;html=1;fontStyle=1;fontSize=12;labelBackgroundColor=none;labelBorderColor=none;fillColor=#d5e8d4;strokeColor=#82b366;" parent="1" vertex="1">
          <mxGeometry x="-44.5" y="337" width="120" height="50" as="geometry" />
        </mxCell>
        <mxCell id="cclBEqFT7hq5Q4IXAHW2-3" value="Escurrimiento&lt;br&gt;Q&lt;sub&gt;(p)&lt;/sub&gt;" style="rounded=1;whiteSpace=wrap;html=1;fontStyle=1;fontSize=15;labelBackgroundColor=none;labelBorderColor=none;fillColor=#f8cecc;strokeColor=#b85450;" parent="1" vertex="1">
          <mxGeometry x="-44.5" y="395.5" width="120" height="50" as="geometry" />
        </mxCell>
        <mxCell id="cclBEqFT7hq5Q4IXAHW2-4" value="Precipitación&lt;br&gt;P&lt;sub&gt;(f)&lt;/sub&gt;" style="rounded=1;whiteSpace=wrap;html=1;fontStyle=1;fontSize=15;labelBackgroundColor=none;labelBorderColor=none;fillColor=#dae8fc;strokeColor=#6c8ebf;" parent="1" vertex="1">
          <mxGeometry x="-44.5" y="468" width="120" height="50" as="geometry" />
        </mxCell>
        <mxCell id="cclBEqFT7hq5Q4IXAHW2-5" value="Evapotranspiración potencial&lt;br&gt;PE&lt;sub&gt;(f)&lt;/sub&gt;" style="rounded=1;whiteSpace=wrap;html=1;fontStyle=1;fontSize=12;labelBackgroundColor=none;labelBorderColor=none;fillColor=#d5e8d4;strokeColor=#82b366;" parent="1" vertex="1">
          <mxGeometry x="-44.5" y="525" width="120" height="50" as="geometry" />
        </mxCell>
        <mxCell id="cclBEqFT7hq5Q4IXAHW2-8" value="Budyko probabilistico" style="rounded=1;whiteSpace=wrap;html=1;fontStyle=1;fontSize=18;labelBackgroundColor=none;labelBorderColor=none;fillColor=#f5f5f5;strokeColor=#808080;fontColor=#333333;shadow=0;glass=0;rotation=0;" parent="1" vertex="1">
          <mxGeometry x="140" y="327" width="180" height="70" as="geometry" />
        </mxCell>
        <mxCell id="cclBEqFT7hq5Q4IXAHW2-154" value="Futuro" style="text;html=1;strokeColor=none;fillColor=default;align=center;verticalAlign=middle;whiteSpace=wrap;rounded=0;shadow=0;glass=0;dashed=1;dashPattern=1 2;labelBackgroundColor=none;labelBorderColor=none;sketch=1;fontSize=20;opacity=80;fontStyle=1;rotation=-90;" parent="1" vertex="1">
          <mxGeometry x="-129.5" y="505" width="105" height="30" as="geometry" />
        </mxCell>
        <mxCell id="cclBEqFT7hq5Q4IXAHW2-153" value="Presente" style="text;html=1;strokeColor=none;fillColor=default;align=center;verticalAlign=middle;whiteSpace=wrap;rounded=0;shadow=0;glass=0;dashed=1;dashPattern=1 2;labelBackgroundColor=none;labelBorderColor=none;sketch=1;fontSize=20;opacity=80;fontStyle=1;rotation=-90;" parent="1" vertex="1">
          <mxGeometry x="-132" y="345" width="110" height="30" as="geometry" />
        </mxCell>
        <mxCell id="L1Qnc_jZdhNXwUre0Jsd-10" value="" style="shape=flexArrow;endArrow=classic;html=1;fontSize=10;strokeColor=#A8A8A8;strokeWidth=2;curved=1;width=12.5;endSize=6.666666666666667;" edge="1" parent="1">
          <mxGeometry width="50" height="50" relative="1" as="geometry">
            <mxPoint x="225" y="410" as="sourcePoint" />
            <mxPoint x="225" y="460" as="targetPoint" />
          </mxGeometry>
        </mxCell>
        <mxCell id="L1Qnc_jZdhNXwUre0Jsd-2" value="" style="group" vertex="1" connectable="0" parent="1">
          <mxGeometry x="670" y="270" width="255" height="180" as="geometry" />
        </mxCell>
        <mxCell id="cclBEqFT7hq5Q4IXAHW2-130" value="" style="endArrow=classic;html=1;rounded=0;fontSize=15;strokeWidth=2;" parent="L1Qnc_jZdhNXwUre0Jsd-2" edge="1">
          <mxGeometry width="50" height="50" relative="1" as="geometry">
            <mxPoint x="35" y="152" as="sourcePoint" />
            <mxPoint x="35" y="2" as="targetPoint" />
          </mxGeometry>
        </mxCell>
        <mxCell id="cclBEqFT7hq5Q4IXAHW2-131" value="" style="endArrow=classic;html=1;rounded=0;fontSize=15;strokeWidth=2;" parent="L1Qnc_jZdhNXwUre0Jsd-2" edge="1">
          <mxGeometry width="50" height="50" relative="1" as="geometry">
            <mxPoint x="35" y="152" as="sourcePoint" />
            <mxPoint x="255" y="152" as="targetPoint" />
          </mxGeometry>
        </mxCell>
        <mxCell id="cclBEqFT7hq5Q4IXAHW2-143" value="ECDF" style="text;html=1;strokeColor=none;fillColor=none;align=center;verticalAlign=middle;whiteSpace=wrap;rounded=0;shadow=0;glass=0;labelBackgroundColor=none;labelBorderColor=none;fontSize=15;opacity=80;fontStyle=1;rotation=-90;" parent="L1Qnc_jZdhNXwUre0Jsd-2" vertex="1">
          <mxGeometry x="-15" y="64.5" width="60" height="30" as="geometry" />
        </mxCell>
        <mxCell id="cclBEqFT7hq5Q4IXAHW2-145" value="" style="endArrow=none;html=1;fontSize=10;strokeColor=#A8A8A8;strokeWidth=2;curved=1;" parent="L1Qnc_jZdhNXwUre0Jsd-2" edge="1">
          <mxGeometry width="50" height="50" relative="1" as="geometry">
            <mxPoint x="35" y="150" as="sourcePoint" />
            <mxPoint x="175" y="10" as="targetPoint" />
            <Array as="points">
              <mxPoint x="105" y="140" />
              <mxPoint x="95" />
            </Array>
          </mxGeometry>
        </mxCell>
        <mxCell id="cclBEqFT7hq5Q4IXAHW2-147" value="Q&lt;sub&gt;(p) Budyko&lt;/sub&gt;&amp;nbsp;" style="text;html=1;strokeColor=none;fillColor=none;align=center;verticalAlign=middle;whiteSpace=wrap;rounded=0;shadow=0;glass=0;labelBackgroundColor=none;labelBorderColor=none;fontSize=15;opacity=80;fontStyle=1" parent="L1Qnc_jZdhNXwUre0Jsd-2" vertex="1">
          <mxGeometry x="75" y="150" width="150" height="30" as="geometry" />
        </mxCell>
        <mxCell id="cclBEqFT7hq5Q4IXAHW2-148" value="" style="endArrow=none;html=1;fontSize=12;strokeColor=#FF3333;strokeWidth=4;curved=1;" parent="L1Qnc_jZdhNXwUre0Jsd-2" edge="1">
          <mxGeometry width="50" height="50" relative="1" as="geometry">
            <mxPoint x="145" y="150" as="sourcePoint" />
            <mxPoint x="145" y="10" as="targetPoint" />
          </mxGeometry>
        </mxCell>
        <mxCell id="cclBEqFT7hq5Q4IXAHW2-149" value="" style="strokeWidth=1;html=1;shape=mxgraph.flowchart.annotation_2;align=left;labelPosition=right;pointerEvents=1;rounded=1;shadow=0;glass=0;labelBackgroundColor=none;labelBorderColor=none;fontSize=12;fillColor=none;gradientColor=#ffffff;opacity=80;rotation=-180;dashed=1;dashPattern=1 2;sketch=1;" parent="L1Qnc_jZdhNXwUre0Jsd-2" vertex="1">
          <mxGeometry x="175" y="15" width="20" height="132.5" as="geometry" />
        </mxCell>
        <mxCell id="cclBEqFT7hq5Q4IXAHW2-150" value="&lt;font style=&quot;font-size: 10px&quot;&gt;Mediana&lt;br&gt;&lt;br&gt;Desviación estándar&lt;br&gt;&lt;/font&gt;" style="text;html=1;strokeColor=none;fillColor=none;align=center;verticalAlign=middle;whiteSpace=wrap;rounded=0;shadow=0;glass=0;labelBackgroundColor=none;labelBorderColor=none;fontSize=15;opacity=80;fontStyle=1" parent="L1Qnc_jZdhNXwUre0Jsd-2" vertex="1">
          <mxGeometry x="200" y="44" width="50" height="80" as="geometry" />
        </mxCell>
        <mxCell id="L1Qnc_jZdhNXwUre0Jsd-14" value="ACESS 1.0" style="rounded=1;whiteSpace=wrap;html=1;fontStyle=1;fontSize=18;labelBackgroundColor=none;labelBorderColor=none;fillColor=#f5f5f5;strokeColor=#808080;fontColor=#333333;shadow=0;glass=0;rotation=0;" vertex="1" parent="1">
          <mxGeometry x="140" y="468" width="180" height="30" as="geometry" />
        </mxCell>
        <mxCell id="L1Qnc_jZdhNXwUre0Jsd-15" value="HadGEM2-ES" style="rounded=1;whiteSpace=wrap;html=1;fontStyle=1;fontSize=18;labelBackgroundColor=none;labelBorderColor=none;fillColor=#f5f5f5;strokeColor=#808080;fontColor=#333333;shadow=0;glass=0;rotation=0;" vertex="1" parent="1">
          <mxGeometry x="140" y="505" width="180" height="30" as="geometry" />
        </mxCell>
        <mxCell id="L1Qnc_jZdhNXwUre0Jsd-16" value="MPI-ESM-LR" style="rounded=1;whiteSpace=wrap;html=1;fontStyle=1;fontSize=18;labelBackgroundColor=none;labelBorderColor=none;fillColor=#f5f5f5;strokeColor=#808080;fontColor=#333333;shadow=0;glass=0;rotation=0;" vertex="1" parent="1">
          <mxGeometry x="140" y="545" width="180" height="30" as="geometry" />
        </mxCell>
        <mxCell id="L1Qnc_jZdhNXwUre0Jsd-18" value="" style="shape=flexArrow;endArrow=classic;html=1;fontSize=10;strokeColor=#A8A8A8;strokeWidth=2;curved=1;width=12.5;endSize=6.666666666666667;" edge="1" parent="1">
          <mxGeometry width="50" height="50" relative="1" as="geometry">
            <mxPoint x="90" y="361.58" as="sourcePoint" />
            <mxPoint x="130" y="361.58" as="targetPoint" />
          </mxGeometry>
        </mxCell>
        <mxCell id="L1Qnc_jZdhNXwUre0Jsd-20" value="" style="shape=flexArrow;endArrow=classic;html=1;fontSize=10;strokeColor=#A8A8A8;strokeWidth=2;curved=1;width=12.5;endSize=6.666666666666667;" edge="1" parent="1">
          <mxGeometry width="50" height="50" relative="1" as="geometry">
            <mxPoint x="90" y="517.9999999999999" as="sourcePoint" />
            <mxPoint x="130" y="517.9999999999999" as="targetPoint" />
          </mxGeometry>
        </mxCell>
        <mxCell id="L1Qnc_jZdhNXwUre0Jsd-22" value="&lt;span style=&quot;color: rgb(0, 0, 0); font-family: helvetica; font-size: 14px; font-style: normal; font-weight: 700; letter-spacing: normal; text-align: center; text-indent: 0px; text-transform: none; word-spacing: 0px; background-color: rgb(248, 249, 250); display: inline; float: none;&quot;&gt;Q&lt;sub style=&quot;font-size: 14px;&quot;&gt;(f) Budyko -&amp;nbsp;&lt;/sub&gt;Q&lt;/span&gt;&lt;sub style=&quot;color: rgb(0, 0, 0); font-family: helvetica; font-style: normal; font-weight: 700; letter-spacing: normal; text-align: center; text-indent: 0px; text-transform: none; word-spacing: 0px; background-color: rgb(248, 249, 250); font-size: 14px;&quot;&gt;&lt;font style=&quot;font-size: 14px;&quot;&gt;(p) Budyko&lt;/font&gt;&lt;br style=&quot;font-size: 14px;&quot;&gt;&lt;div style=&quot;text-align: center; font-size: 14px;&quot;&gt;&lt;br style=&quot;font-size: 14px;&quot;&gt;&lt;/div&gt;&lt;/sub&gt;" style="text;whiteSpace=wrap;html=1;fontSize=14;" vertex="1" parent="1">
          <mxGeometry x="633" y="488" width="185" height="30" as="geometry" />
        </mxCell>
        <mxCell id="cclBEqFT7hq5Q4IXAHW2-127" value="" style="shape=flexArrow;endArrow=classic;html=1;fontSize=10;strokeColor=#A8A8A8;strokeWidth=2;curved=1;width=12.5;endSize=6.666666666666667;" parent="1" edge="1">
          <mxGeometry width="50" height="50" relative="1" as="geometry">
            <mxPoint x="330" y="363.75" as="sourcePoint" />
            <mxPoint x="370" y="363.75" as="targetPoint" />
          </mxGeometry>
        </mxCell>
        <mxCell id="L1Qnc_jZdhNXwUre0Jsd-9" value="" style="shape=flexArrow;endArrow=classic;html=1;fontSize=10;strokeColor=#A8A8A8;strokeWidth=2;curved=1;width=12.5;endSize=6.666666666666667;" edge="1" parent="1">
          <mxGeometry width="50" height="50" relative="1" as="geometry">
            <mxPoint x="630" y="363.75" as="sourcePoint" />
            <mxPoint x="670" y="363.75" as="targetPoint" />
          </mxGeometry>
        </mxCell>
        <mxCell id="L1Qnc_jZdhNXwUre0Jsd-17" value="" style="shape=flexArrow;endArrow=classic;html=1;fontSize=10;strokeColor=#A8A8A8;strokeWidth=2;curved=1;width=12.5;endSize=6.666666666666667;" edge="1" parent="1">
          <mxGeometry width="50" height="50" relative="1" as="geometry">
            <mxPoint x="330" y="520" as="sourcePoint" />
            <mxPoint x="370" y="520" as="targetPoint" />
          </mxGeometry>
        </mxCell>
        <mxCell id="cclBEqFT7hq5Q4IXAHW2-103" value="[P&lt;sub&gt;(p)&lt;/sub&gt;-Q&lt;span style=&quot;font-size: 12.5px&quot;&gt;&lt;sub&gt;(p)&lt;/sub&gt;]&amp;nbsp;&lt;/span&gt;/ P&lt;span style=&quot;font-size: 12.5px&quot;&gt;&lt;sub&gt;(p)&lt;/sub&gt;&lt;/span&gt;" style="text;html=1;strokeColor=none;fillColor=none;align=center;verticalAlign=middle;whiteSpace=wrap;rounded=0;shadow=0;glass=0;labelBackgroundColor=none;labelBorderColor=none;fontSize=15;opacity=80;fontStyle=1;rotation=-90;" parent="1" vertex="1">
          <mxGeometry x="314" y="333.75" width="132.5" height="30" as="geometry" />
        </mxCell>
        <mxCell id="L1Qnc_jZdhNXwUre0Jsd-1" value="" style="group" vertex="1" connectable="0" parent="1">
          <mxGeometry x="395.25" y="270" width="230" height="180" as="geometry" />
        </mxCell>
        <mxCell id="cclBEqFT7hq5Q4IXAHW2-10" value="" style="endArrow=classic;html=1;rounded=0;fontSize=15;strokeWidth=2;" parent="L1Qnc_jZdhNXwUre0Jsd-1" edge="1">
          <mxGeometry width="50" height="50" relative="1" as="geometry">
            <mxPoint x="5" y="150" as="sourcePoint" />
            <mxPoint x="5" as="targetPoint" />
          </mxGeometry>
        </mxCell>
        <mxCell id="cclBEqFT7hq5Q4IXAHW2-11" value="" style="endArrow=classic;html=1;rounded=0;fontSize=15;strokeWidth=2;" parent="L1Qnc_jZdhNXwUre0Jsd-1" edge="1">
          <mxGeometry width="50" height="50" relative="1" as="geometry">
            <mxPoint x="5" y="150" as="sourcePoint" />
            <mxPoint x="225" y="150" as="targetPoint" />
          </mxGeometry>
        </mxCell>
        <mxCell id="cclBEqFT7hq5Q4IXAHW2-12" value="" style="endArrow=none;html=1;rounded=0;fontSize=15;strokeWidth=2;" parent="L1Qnc_jZdhNXwUre0Jsd-1" edge="1">
          <mxGeometry width="50" height="50" relative="1" as="geometry">
            <mxPoint x="5" y="150" as="sourcePoint" />
            <mxPoint x="65" y="50" as="targetPoint" />
          </mxGeometry>
        </mxCell>
        <mxCell id="cclBEqFT7hq5Q4IXAHW2-13" value="" style="endArrow=none;html=1;rounded=0;fontSize=15;strokeWidth=2;" parent="L1Qnc_jZdhNXwUre0Jsd-1" edge="1">
          <mxGeometry width="50" height="50" relative="1" as="geometry">
            <mxPoint x="65" y="50" as="sourcePoint" />
            <mxPoint x="225" y="50" as="targetPoint" />
          </mxGeometry>
        </mxCell>
        <mxCell id="cclBEqFT7hq5Q4IXAHW2-16" value="" style="endArrow=none;html=1;strokeWidth=2;fontSize=15;strokeColor=#A8A8A8;curved=1;" parent="L1Qnc_jZdhNXwUre0Jsd-1" edge="1">
          <mxGeometry width="50" height="50" relative="1" as="geometry">
            <mxPoint x="5" y="150" as="sourcePoint" />
            <mxPoint x="225" y="60" as="targetPoint" />
            <Array as="points">
              <mxPoint x="55" y="90" />
              <mxPoint x="75" y="70" />
              <mxPoint x="105" y="60" />
            </Array>
          </mxGeometry>
        </mxCell>
        <mxCell id="cclBEqFT7hq5Q4IXAHW2-19" value="" style="endArrow=none;html=1;strokeWidth=2;fontSize=15;strokeColor=#A8A8A8;curved=1;" parent="L1Qnc_jZdhNXwUre0Jsd-1" edge="1">
          <mxGeometry width="50" height="50" relative="1" as="geometry">
            <mxPoint x="5" y="150" as="sourcePoint" />
            <mxPoint x="225" y="70" as="targetPoint" />
            <Array as="points">
              <mxPoint x="85" y="80" />
              <mxPoint x="115" y="70" />
            </Array>
          </mxGeometry>
        </mxCell>
        <mxCell id="cclBEqFT7hq5Q4IXAHW2-21" value="" style="endArrow=none;html=1;strokeWidth=2;fontSize=15;startArrow=none;strokeColor=#A8A8A8;curved=1;" parent="L1Qnc_jZdhNXwUre0Jsd-1" edge="1">
          <mxGeometry width="50" height="50" relative="1" as="geometry">
            <mxPoint x="5" y="150" as="sourcePoint" />
            <mxPoint x="225" y="80" as="targetPoint" />
            <Array as="points">
              <mxPoint x="95" y="90" />
              <mxPoint x="135" y="80" />
            </Array>
          </mxGeometry>
        </mxCell>
        <mxCell id="cclBEqFT7hq5Q4IXAHW2-32" value="" style="ellipse;whiteSpace=wrap;html=1;aspect=fixed;rounded=1;shadow=0;glass=0;labelBackgroundColor=none;labelBorderColor=none;fontSize=15;opacity=80;fillColor=#dae8fc;strokeWidth=2;strokeColor=#6c8ebf;" parent="L1Qnc_jZdhNXwUre0Jsd-1" vertex="1">
          <mxGeometry x="55" y="77" width="14" height="14" as="geometry" />
        </mxCell>
        <mxCell id="cclBEqFT7hq5Q4IXAHW2-34" value="" style="ellipse;whiteSpace=wrap;html=1;aspect=fixed;rounded=1;shadow=0;glass=0;labelBackgroundColor=none;labelBorderColor=none;fontSize=15;opacity=80;fillColor=#f8cecc;strokeWidth=2;strokeColor=#b85450;" parent="L1Qnc_jZdhNXwUre0Jsd-1" vertex="1">
          <mxGeometry x="131" y="63" width="14" height="14" as="geometry" />
        </mxCell>
        <mxCell id="cclBEqFT7hq5Q4IXAHW2-36" value="" style="ellipse;whiteSpace=wrap;html=1;aspect=fixed;rounded=1;shadow=0;glass=0;labelBackgroundColor=none;labelBorderColor=none;fontSize=15;opacity=80;fillColor=#d5e8d4;strokeWidth=2;strokeColor=#82b366;" parent="L1Qnc_jZdhNXwUre0Jsd-1" vertex="1">
          <mxGeometry x="95" y="84" width="14" height="14" as="geometry" />
        </mxCell>
        <mxCell id="cclBEqFT7hq5Q4IXAHW2-37" value="" style="ellipse;whiteSpace=wrap;html=1;aspect=fixed;rounded=1;shadow=0;glass=0;labelBackgroundColor=none;labelBorderColor=none;fontSize=15;opacity=80;fillColor=#ffe6cc;strokeWidth=2;strokeColor=#d79b00;" parent="L1Qnc_jZdhNXwUre0Jsd-1" vertex="1">
          <mxGeometry x="45" y="110" width="16" height="16" as="geometry" />
        </mxCell>
        <mxCell id="cclBEqFT7hq5Q4IXAHW2-39" value="" style="ellipse;whiteSpace=wrap;html=1;aspect=fixed;rounded=1;shadow=0;glass=0;labelBackgroundColor=none;labelBorderColor=none;fontSize=15;opacity=80;fillColor=#e1d5e7;strokeWidth=2;strokeColor=#9673a6;" parent="L1Qnc_jZdhNXwUre0Jsd-1" vertex="1">
          <mxGeometry x="185" y="50" width="14" height="14" as="geometry" />
        </mxCell>
        <mxCell id="cclBEqFT7hq5Q4IXAHW2-97" value="PE&lt;span style=&quot;font-size: 12.5px&quot;&gt;&lt;sub&gt;(p)&lt;/sub&gt;&amp;nbsp;&lt;/span&gt;/ P&lt;span style=&quot;font-size: 12.5px&quot;&gt;&lt;sub&gt;(p)&lt;/sub&gt;&lt;/span&gt;" style="text;html=1;strokeColor=none;fillColor=none;align=center;verticalAlign=middle;whiteSpace=wrap;rounded=0;shadow=0;glass=0;labelBackgroundColor=none;labelBorderColor=none;fontSize=15;opacity=80;fontStyle=1" parent="L1Qnc_jZdhNXwUre0Jsd-1" vertex="1">
          <mxGeometry y="150" width="230" height="30" as="geometry" />
        </mxCell>
        <mxCell id="L1Qnc_jZdhNXwUre0Jsd-23" value="Disponibilidad hidrica" style="rounded=1;whiteSpace=wrap;html=1;fontStyle=1;fontSize=18;labelBackgroundColor=none;labelBorderColor=none;fillColor=#f5f5f5;strokeColor=#808080;fontColor=#333333;shadow=0;glass=0;rotation=0;" vertex="1" parent="1">
          <mxGeometry x="385" y="480" width="180" height="70" as="geometry" />
        </mxCell>
        <mxCell id="L1Qnc_jZdhNXwUre0Jsd-26" value="" style="shape=flexArrow;endArrow=classic;html=1;fontSize=10;strokeColor=#A8A8A8;strokeWidth=2;curved=1;width=12.5;endSize=6.666666666666667;" edge="1" parent="1">
          <mxGeometry width="50" height="50" relative="1" as="geometry">
            <mxPoint x="575" y="519.58" as="sourcePoint" />
            <mxPoint x="615" y="519.58" as="targetPoint" />
          </mxGeometry>
        </mxCell>
        <mxCell id="L1Qnc_jZdhNXwUre0Jsd-28" value="&lt;span style=&quot;color: rgb(0, 0, 0); font-family: helvetica; font-size: 14px; font-style: normal; font-weight: 700; letter-spacing: normal; text-align: center; text-indent: 0px; text-transform: none; word-spacing: 0px; background-color: rgb(248, 249, 250); display: inline; float: none;&quot;&gt;Q&lt;/span&gt;&lt;sub style=&quot;color: rgb(0, 0, 0); font-family: helvetica; font-style: normal; font-weight: 700; letter-spacing: normal; text-align: center; text-indent: 0px; text-transform: none; word-spacing: 0px; background-color: rgb(248, 249, 250); font-size: 14px;&quot;&gt;&lt;font style=&quot;font-size: 14px;&quot;&gt;(p) Budyko&lt;/font&gt;&lt;br style=&quot;font-size: 14px;&quot;&gt;&lt;div style=&quot;text-align: center; font-size: 14px;&quot;&gt;&lt;br style=&quot;color: rgb(0, 0, 0); font-family: helvetica; font-size: 14px; font-style: normal; font-weight: 700; letter-spacing: normal; text-align: center; text-indent: 0px; text-transform: none; word-spacing: 0px; background-color: rgb(248, 249, 250);&quot;&gt;&lt;/div&gt;&lt;/sub&gt;" style="text;whiteSpace=wrap;html=1;fontSize=14;" vertex="1" parent="1">
          <mxGeometry x="675" y="510" width="100" height="40" as="geometry" />
        </mxCell>
        <mxCell id="L1Qnc_jZdhNXwUre0Jsd-29" value="" style="endArrow=none;html=1;rounded=0;fontSize=14;" edge="1" parent="1">
          <mxGeometry width="50" height="50" relative="1" as="geometry">
            <mxPoint x="640" y="515" as="sourcePoint" />
            <mxPoint x="800" y="515" as="targetPoint" />
          </mxGeometry>
        </mxCell>
      </root>
    </mxGraphModel>
  </diagram>
</mxfile>
